<mxfile host="Electron" modified="2024-07-16T00:00:24.752Z" agent="Mozilla/5.0 (Macintosh; Intel Mac OS X 10_15_7) AppleWebKit/537.36 (KHTML, like Gecko) draw.io/24.5.3 Chrome/124.0.6367.207 Electron/30.0.6 Safari/537.36" etag="t7PVXs4N-icPQGoZzTU0" version="24.5.3" type="device">
  <diagram name="第 1 页" id="ZRxcx58JQ7Ch8AZvV593">
    <mxGraphModel dx="907" dy="637" grid="0" gridSize="10" guides="1" tooltips="1" connect="1" arrows="1" fold="1" page="0" pageScale="1" pageWidth="827" pageHeight="1169" math="0" shadow="0">
      <root>
        <mxCell id="0" />
        <mxCell id="1" parent="0" />
        <mxCell id="bhyND-Gxy7nze5zVHm1T-1" value="" style="shape=image;verticalLabelPosition=bottom;labelBackgroundColor=default;verticalAlign=top;aspect=fixed;imageAspect=0;image=https://www.disktool.cn/assets/screenshot/others/c.png;" vertex="1" parent="1">
          <mxGeometry x="40" y="100" width="227.9" height="70" as="geometry" />
        </mxCell>
      </root>
    </mxGraphModel>
  </diagram>
</mxfile>
